# xmcd
#
# Track frame offsets:
#	150
#	16570
#	34683
#	48063
#	67300
#	86330
#	104490
#	121135
#	139705
#	158433
#	175678
#	197995
#	210823
#	226530
#
# Disc length: 3271 seconds
#
# Revision: 1
# Processed by: cddbd v1.5.2PL0 Copyright (c) Steve Scherf et al.
# Submitted via: EZCDAudioConverter 8.0.2.1
#
DISCID=9f0cc50e
DTITLE=Various Artist - Phút Bên Em
DYEAR=1989
DGENRE=Pop
TTITLE0=Kim Anh - Chờ
TTITLE1=Duy Quang - Vì tôi là linh mục
TTITLE2=Ngọc Lan - Phút Bên Em
TTITLE3=Tuấn Vũ - Sau những lần mỏi gối
TTITLE4=Julie - Khi có nhau trong đời
TTITLE5=Lệ Thu - Tình chết theo mùa đông
TTITLE6=Tuấn Anh - Có nhớ đêm nào
TTITLE7=Kiều Nga - Giã từ đêm mưa
TTITLE8=Lệ Thu - Giáng ngọc
TTITLE9=Jeannie Mai - Cái trâm em cài
TTITLE10=Thanh Phong - Kiếp hoa
TTITLE11=Mary Linh - Sầu đông
TTITLE12=Giao Linh - Khuya nay anh đi rồi
TTITLE13=Carol Kim - Trọn kiếp cô đơn
EXTD=
EXTT0=
EXTT1=
EXTT2=
EXTT3=
EXTT4=
EXTT5=
EXTT6=
EXTT7=
EXTT8=
EXTT9=
EXTT10=
EXTT11=
EXTT12=
EXTT13=
PLAYORDER=
